<svg xmlns="http://www.w3.org/2000/svg" width="320" height="320" viewBox="0 0 160 160"><path d="M40 78L44 30L76 58ZM120 78L116 30L84 58Z" fill="#3A3A34"></path><path d="M48 68L50 42L68 58ZM112 68L110 42L92 58Z" fill="#8F8A80"></path><ellipse cx="80" cy="92" rx="48" ry="42" fill="#3A3A34"></ellipse><ellipse cx="80" cy="112" rx="20" ry="14" fill="#F2EEE6"></ellipse><path d="M74 104H86L80 111Z" fill="#0E0E0C"></path><path d="M52 90q8-9 16 0M92 90q8-9 16 0" fill="none" stroke="#5CF0BE" stroke-width="4" stroke-linecap="round"></path><path d="M28 106H56M28 116L56 112M132 106H104M132 116L104 112" fill="none" stroke="#F2EEE6" stroke-width="2.5" stroke-linecap="round"></path></svg>
